<svg xmlns="http://www.w3.org/2000/svg" viewBox="0 0 100 100">
  <defs>
    <linearGradient id="g" x1="0" y1="0" x2="1" y2="1">
      <stop offset="0%"   stop-color="#3b82f6"/>
      <stop offset="100%" stop-color="#6366f1"/>
    </linearGradient>
  </defs>
  <!-- white rounded square background -->
  <rect width="100" height="100" rx="22" ry="22" fill="white"/>
  <!-- faComments icon in gradient, centred with ~10px padding -->
  <g transform="translate(10,12) scale(0.138889,0.148438)">
    <path d="M384 144c0 97.2-86 176-192 176-26.7 0-52.1-5-75.2-14L35.2 349.2c-9.3 4.9-20.7 3.2-28.2-4.2s-9.2-18.9-4.2-28.2l35.6-67.2C14.3 220.2 0 183.6 0 144 0 46.8 86-32 192-32S384 46.8 384 144zm0 368c-94.1 0-172.4-62.1-188.8-144 120-1.5 224.3-86.9 235.8-202.7 83.3 19.2 145 88.3 145 170.7 0 39.6-14.3 76.2-38.4 105.6l35.6 67.2c4.9 9.3 3.2 20.7-4.2 28.2s-18.9 9.2-28.2 4.2L459.2 498c-23.1 9-48.5 14-75.2 14z" fill="url(#g)"/>
  </g>
</svg>
